<svg xmlns="http://www.w3.org/2000/svg" viewBox="0 0 1200 1200"><defs><style>.a,.b{fill:#009c9e;}.b{stroke:#009c9e;stroke-linecap:round;stroke-linejoin:round;stroke-width:2px;}.c{fill:#f09b33;}</style></defs><path class="a" d="M1157,600h43a605.25,605.25,0,0,0-4.8-76.25l-42.63,5.46a549.34,549.34,0,0,0-14.38-73.42l41.5-11.12a593.82,593.82,0,0,0-24.42-72.4l-39.78,16.31c-.74-1.8-1.48-3.59-2.24-5.38a555.87,555.87,0,0,0-30.76-61.76L1119.7,300a597.84,597.84,0,0,0-42.4-63.57l-34.17,26a560.66,560.66,0,0,0-49.27-56.28l30.4-30.4a603.12,603.12,0,0,0-57.33-50.49l-26.27,34a549,549,0,0,0-62.1-41.73L900,80.3a596,596,0,0,0-68.44-34L815,86a553.88,553.88,0,0,0-70.8-24.19l11.12-41.5a595.92,595.92,0,0,0-74.93-15l-5.76,42.59A563.92,563.92,0,0,0,600,43V0a605.25,605.25,0,0,0-76.25,4.8l5.46,42.63a549.34,549.34,0,0,0-73.42,14.38l-11.12-41.5a593.82,593.82,0,0,0-72.4,24.42l16.31,39.78c-1.8.74-3.59,1.48-5.38,2.24a555.87,555.87,0,0,0-61.76,30.76L300,80.3a597.84,597.84,0,0,0-63.57,42.4l26,34.17a560.66,560.66,0,0,0-56.28,49.27l-30.4-30.4a603.12,603.12,0,0,0-50.49,57.33l34,26.27a549,549,0,0,0-41.73,62.1L80.3,300a596,596,0,0,0-34,68.44L86,385a553.88,553.88,0,0,0-24.19,70.8l-41.5-11.12a595.92,595.92,0,0,0-15,74.93l42.59,5.76A563.92,563.92,0,0,0,43,600H0a605.25,605.25,0,0,0,4.8,76.25l42.63-5.46a549.34,549.34,0,0,0,14.38,73.42l-41.5,11.12a593.82,593.82,0,0,0,24.42,72.4l39.78-16.31c.74,1.8,1.48,3.59,2.24,5.38a555.87,555.87,0,0,0,30.76,61.76L80.3,900a597.84,597.84,0,0,0,42.4,63.57l34.17-26a560.66,560.66,0,0,0,49.27,56.28l-30.4,30.4a603.12,603.12,0,0,0,57.33,50.49l26.27-34a549,549,0,0,0,62.1,41.73L300,1119.7a596,596,0,0,0,68.44,34L385,1114a553.88,553.88,0,0,0,70.8,24.19l-11.12,41.5a595.92,595.92,0,0,0,74.93,15l5.76-42.59A563.92,563.92,0,0,0,600,1157v43a605.25,605.25,0,0,0,76.25-4.8l-5.46-42.63a549.34,549.34,0,0,0,73.42-14.38l11.12,41.5a593.82,593.82,0,0,0,72.4-24.42l-16.31-39.78c1.8-.74,3.59-1.48,5.38-2.24a555.87,555.87,0,0,0,61.76-30.76L900,1119.7a597.84,597.84,0,0,0,63.57-42.4l-26-34.17a560.66,560.66,0,0,0,56.28-49.27l30.4,30.4a603.12,603.12,0,0,0,50.49-57.33l-34-26.27a549,549,0,0,0,41.73-62.1L1119.7,900a596,596,0,0,0,34-68.44L1114,815a553.88,553.88,0,0,0,24.19-70.8l41.5,11.12a595.92,595.92,0,0,0,15-74.93l-42.59-5.76A563.92,563.92,0,0,0,1157,600Zm-52.51,68.21a502.76,502.76,0,0,1-34.78,128.27c-.22.54-.44,1.08-.67,1.62a508.31,508.31,0,0,1-28.12,56.46,501.73,501.73,0,0,1-38.14,56.74A516,516,0,0,1,908.49,1005a502.56,502.56,0,0,1-53.93,36A508.31,508.31,0,0,1,798.1,1069q-2.45,1-4.9,2A503.4,503.4,0,0,1,664.69,1105a518.36,518.36,0,0,1-132.9-.46,502.76,502.76,0,0,1-128.27-34.78l-1.62-.67a508.31,508.31,0,0,1-56.46-28.12,501.73,501.73,0,0,1-56.74-38.14,516,516,0,0,1-93.65-94.29,502.56,502.56,0,0,1-36-53.93A508.31,508.31,0,0,1,131,798.1q-1-2.45-2-4.9A503.4,503.4,0,0,1,95.05,664.69a518.36,518.36,0,0,1,.46-132.9,502.76,502.76,0,0,1,34.78-128.27c.22-.54.44-1.08.67-1.62a508.31,508.31,0,0,1,28.12-56.46,501.73,501.73,0,0,1,38.14-56.74,516,516,0,0,1,94.29-93.65,502.56,502.56,0,0,1,53.93-36A508.31,508.31,0,0,1,401.9,131q2.44-1,4.9-2A503.4,503.4,0,0,1,535.31,95.05a518.36,518.36,0,0,1,132.9.46,502.76,502.76,0,0,1,128.27,34.78l1.62.67a508.31,508.31,0,0,1,56.46,28.12,501.73,501.73,0,0,1,56.74,38.14A516,516,0,0,1,1005,291.51a502.56,502.56,0,0,1,36,53.93A508.31,508.31,0,0,1,1069,401.9q1,2.44,2,4.9A503.4,503.4,0,0,1,1105,535.31a518.36,518.36,0,0,1-.46,132.9Z"/><path class="b" d="M361.17,936.43l-1.42,32.37q-.57,13.44.61,18a15.61,15.61,0,0,0,5.49,8.08l-1.36,1.85L335.42,975.3l1.36-1.84a16.43,16.43,0,0,0,4.73,2.56,5.1,5.1,0,0,0,2.74-.11,3.93,3.93,0,0,0,2.05-1.38,7.69,7.69,0,0,0,1.24-2.63,48.5,48.5,0,0,0,.49-6.41l1.3-25.84-27.57,7.75a33.84,33.84,0,0,0-5.54,1.89,6,6,0,0,0-1.94,1.69,4,4,0,0,0-.6,3.64q.58,2,4.27,5l-1.36,1.85-24-17.67,1.36-1.85a18.12,18.12,0,0,0,5.17,2.18,31,31,0,0,0,8.46.84,50.87,50.87,0,0,0,11.36-2l30.83-8.42,1-29.34q.39-12-1.58-17.22a20.62,20.62,0,0,0-6.82-9l1.36-1.85,31.32,23-1.36,1.85c-2.73-1.86-4.88-2.77-6.42-2.72a4,4,0,0,0-3.35,1.46c-.9,1.23-1.43,3.62-1.57,7.16l-1,23.18,23.25-6.38a31.86,31.86,0,0,0,5.29-1.81,5.75,5.75,0,0,0,2-1.7,3.67,3.67,0,0,0,.76-2.29,4.93,4.93,0,0,0-.81-2.87,22.11,22.11,0,0,0-4.4-4l1.36-1.85,24,17.67-1.36,1.85a17.6,17.6,0,0,0-5.31-2.51,23.3,23.3,0,0,0-7.22-.55,69.64,69.64,0,0,0-11.64,2.53Z"/><path class="b" d="M424.48,934.36l1-2.07L457.88,948l-1,2.07-2.73-1.33q-4.63-2.25-8.08-.55-2.2,1.14-5.51,7.94l-18,37q-4.14,8.54-8.59,12.92a23.82,23.82,0,0,1-10.93,6.1,18.17,18.17,0,0,1-12.95-1.44q-5.25-2.55-7-6.6a8.57,8.57,0,0,1-.13-7.41,6.26,6.26,0,0,1,3.4-3.45,6.82,6.82,0,0,1,5.14.36,5.48,5.48,0,0,1,2.64,2.73q.84,1.86.56,8-.19,3.63,1.82,4.61c1,.49,2.24.33,3.71-.47s3-2.77,4.49-5.89L429.85,951q2.79-5.75,3-7.94a5.58,5.58,0,0,0-1.17-3.54,11.34,11.34,0,0,0-4.43-3.8Z"/><path class="b" d="M538,971.49l-4.09,19.32-2.28-.6a23.85,23.85,0,0,0,.08-7.67,12.41,12.41,0,0,0-3.61-6.42,17.84,17.84,0,0,0-7.7-3.78l-11.46-3-16.24,62.15q-2,7.5-.83,9.78,1.62,3.12,6.36,4.36l2.82.74-.58,2.22-34.49-9,.58-2.22,2.88.75c3.43.9,6.15.5,8.13-1.2q1.82-1.58,3.61-8.42l16.25-62.16-9.78-2.55c-3.8-1-6.58-1.42-8.32-1.28a11.51,11.51,0,0,0-6.49,3,18.32,18.32,0,0,0-4.93,8.07l-2.28-.6,6-18.83Z"/><path class="b" d="M610.46,977.34l0-2.29,29.76.33,0,2.29-3.16,0a8.53,8.53,0,0,0-7.67,4.07q-1.32,1.9-1.4,8.91l-.37,34.11q-.15,12.64-2.73,19.59t-10,11.86q-7.39,4.92-20,4.78-13.77-.15-20.85-5A25.8,25.8,0,0,1,564,1043q-1.93-5.55-1.76-20.74l.36-32.86q.09-7.75-2-10.19c-1.41-1.63-3.7-2.46-6.89-2.5l-3.16,0,0-2.29,36.33.39,0,2.3-3.23,0q-5.2-.06-7.47,3.21c-1.05,1.47-1.6,4.57-1.66,9.28l-.4,36.65a82.22,82.22,0,0,0,.78,11.23,23.84,23.84,0,0,0,3.15,9.9,17.65,17.65,0,0,0,6.72,5.9,23.55,23.55,0,0,0,10.86,2.41,30,30,0,0,0,14.8-3.43q6.54-3.53,9-9.11t2.59-19l.37-34q.09-7.87-1.62-9.87c-1.6-1.84-4-2.78-7.17-2.81Z"/><path class="b" d="M696.29,1020.3l-31.94,6.3-3,14.12c-.74,3.48-1,6-.65,7.59a4.26,4.26,0,0,0,2.45,3q2.07,1.08,8.12.33l.45,2.25-26,5.12-.45-2.26c3.33-1.28,5.4-2.51,6.23-3.69q2.52-3.52,4.53-13.22l15.65-73.61,2.13-.42,42.24,63q5.1,7.59,8.41,9.49c2.21,1.28,5,1.68,8.42,1.22l.45,2.25-32.55,6.42-.45-2.26c3.26-.8,5.37-1.79,6.34-2.95a4.34,4.34,0,0,0,1.07-3.75q-.54-2.67-4.1-8Zm-2.59-4.17-20.57-30.58-7.78,36.17Z"/><path class="b" d="M710,961.84l20.83-9.34L803.51,989l-19.84-44.25q-3.18-7.07-5.55-8.11-3.15-1.44-7.68.59l-2.66,1.19-.94-2.09,26.71-12,.94,2.09-2.72,1.22q-4.86,2.19-5.58,6-.44,2.37,2.46,8.82l29,64.67-2,.92L737.32,969l21.19,47.25q3.16,7.08,5.48,8.14c2.15.94,4.71.75,7.69-.59l2.71-1.22.94,2.1-26.7,12-.94-2.09,2.66-1.19q4.92-2.22,5.64-6.07.43-2.37-2.46-8.82L729.6,965.14a37.74,37.74,0,0,0-7.37-2.88,20.59,20.59,0,0,0-6.11,0,20,20,0,0,0-5.21,1.72Z"/><path class="b" d="M869,936.87l-26,19.64,3.45,14q1.28,5.18,2.74,7.11a4.26,4.26,0,0,0,3.5,1.59c1.55,0,4-1.05,7.44-3.26l1.39,1.83-21.12,16L839,991.94q3.63-3.91,4-6,.72-4.27-1.71-13.87l-18.16-73,1.73-1.31,65.54,38.13q7.91,4.59,11.72,4.86a13.09,13.09,0,0,0,8.11-2.6l1.38,1.83-26.45,20-1.39-1.83c2.57-2.15,4-4,4.41-5.44a4.34,4.34,0,0,0-.69-3.83q-1.65-2.18-7.18-5.38Zm-4.15-2.62L833,915.76l8.83,35.93Z"/><path class="c" d="M647,600c0,19.47-10.36,29.83-13.77,33.23C619.47,647,604.81,647,600,647c-19.47,0-29.83-10.36-33.23-13.77C553,619.47,553,604.81,553,600c0-19.47,10.36-29.83,13.77-33.23C580.53,553,595.19,553,600,553c19.47,0,29.83,10.36,33.23,13.77C647,580.53,647,595.19,647,600Z"/><path class="c" d="M929.69,362.79a47,47,0,0,1-83,30.21q-9-10.68-19-20.69a322,322,0,0,0-455.38,0q-10,10-19,20.69a47,47,0,0,1-72-60.42q11.63-13.81,24.54-26.74C384.42,227.27,488.88,184,600,184s215.58,43.27,294.16,121.84q12.92,12.92,24.54,26.74A46.82,46.82,0,0,1,929.69,362.79Z"/><path class="c" d="M788.74,481.07a47,47,0,0,1-83,30.21c-2.74-3.24-5.48-6.19-8.15-8.86C679.14,484,647.25,462,600,462s-79.14,22-97.58,40.42c-2.67,2.67-5.41,5.62-8.15,8.86a47,47,0,1,1-72-60.42q6.5-7.69,13.69-14.91a232,232,0,0,1,328.1,0q7.2,7.2,13.69,14.91A46.78,46.78,0,0,1,788.74,481.07Z"/><path class="c" d="M1008.2,680.81q-3.62,18.48-8.88,36.47L692.5,848.83a94,94,0,0,1-185,0L200.68,717.28q-5.27-18-8.88-36.47L507.34,816.1l16.34,7,.07,0,2.71,1.17a14.87,14.87,0,0,1,5.55,4.78,16.67,16.67,0,0,1,2.19,5.16l4.65,13.82a60.52,60.52,0,0,0,7,14.19,62,62,0,0,0,108.22,0,60.52,60.52,0,0,0,7-14.19l4.65-13.82a16.67,16.67,0,0,1,2.19-5.16,14.87,14.87,0,0,1,5.55-4.78l2.71-1.17.07,0,16.34-7Z"/><path class="a" d="M964.91,655.27a223.59,223.59,0,0,0,50.32-29.75,416,416,0,0,1-5,44.24h0a208.82,208.82,0,0,1-53.42,25c-6.58,2-12.93,3.56-19,4.79l21.76,2.1L692.66,816.1l-16.34,7-.07,0-2.71,1.17a14.87,14.87,0,0,0-5.55,4.78,16.67,16.67,0,0,0-2.19,5.16l-4.65,13.82a60.52,60.52,0,0,1-7,14.19,62,62,0,0,1-108.22,0,60.52,60.52,0,0,1-7-14.19l-4.65-13.82a16.67,16.67,0,0,0-2.19-5.16,14.87,14.87,0,0,0-5.55-4.78l-2.71-1.17-.07,0-16.34-7L240.43,701.66l21.76-2.1c-6-1.23-12.39-2.79-19-4.79a208.82,208.82,0,0,1-53.42-25h0a416,416,0,0,1-5-44.24A222.59,222.59,0,0,0,285.59,670a341.19,341.19,0,0,1-101.47-80,418.61,418.61,0,0,1,5.25-57.18A215.06,215.06,0,0,0,231.13,590c16.23,15.77,32.74,26.57,47.94,36.51,13.18,8.62,24.71,15.16,33.22,19.72a377.64,377.64,0,0,1-34-31.35,407.27,407.27,0,0,1-45-56.9A424.58,424.58,0,0,1,198,492.39a408.81,408.81,0,0,1,21.07-60.07,281.21,281.21,0,0,0,23.77,74.44c2.5,5.19,13.62,27.87,37.11,57.72C289,576,317.6,611.09,374,652.7c18.74,13.83,10.51,6.21,92.78,59.1,28.88,18.57,59.66,38.64,88.63,67.81,11.12,11.21,25.83,27.64,36.48,52.25a155.91,155.91,0,0,1,8.13,24,155.91,155.91,0,0,1,8.13-24c10.65-24.61,25.36-41,36.48-52.25,29-29.17,59.75-49.24,88.63-67.81,82.27-52.89,74-45.27,92.78-59.1,56.38-41.61,85-76.73,94.05-88.22,23.49-29.85,34.61-52.53,37.11-57.72A281.21,281.21,0,0,0,981,432.32,408.81,408.81,0,0,1,1002,492.39,424.58,424.58,0,0,1,966.65,558a407.27,407.27,0,0,1-45,56.9,377.64,377.64,0,0,1-33.95,31.35c8.51-4.56,20-11.1,33.22-19.72,15.2-9.94,31.71-20.74,47.94-36.51a215.06,215.06,0,0,0,41.76-57.18,418.61,418.61,0,0,1,5.25,57.18,341.19,341.19,0,0,1-101.47,80A222.88,222.88,0,0,0,964.91,655.27Z"/></svg>